<?xml version="1.0" encoding="UTF-8" standalone="no"?>
<!-- Created with Inkscape (http://www.inkscape.org/) -->

<svg
   xmlns:dc="http://purl.org/dc/elements/1.1/"
   xmlns:cc="http://creativecommons.org/ns#"
   xmlns:rdf="http://www.w3.org/1999/02/22-rdf-syntax-ns#"
   xmlns:svg="http://www.w3.org/2000/svg"
   xmlns="http://www.w3.org/2000/svg"
   xmlns:sodipodi="http://sodipodi.sourceforge.net/DTD/sodipodi-0.dtd"
   xmlns:inkscape="http://www.inkscape.org/namespaces/inkscape"
   version="1.1"
   id="svg1075"
   width="32"
   height="32"
   viewBox="0 0 32 32"
   sodipodi:docname="favicon.ico.svg"
   inkscape:version="0.92.5 (2060ec1f9f, 2020-04-08)">
  <metadata
     id="metadata1081">
    <rdf:RDF>
      <cc:Work
         rdf:about="">
        <dc:format>image/svg+xml</dc:format>
        <dc:type
           rdf:resource="http://purl.org/dc/dcmitype/StillImage" />
        <dc:title></dc:title>
      </cc:Work>
    </rdf:RDF>
  </metadata>
  <defs
     id="defs1079">
    <inkscape:path-effect
       effect="copy_rotate"
       starting_point="418.3622,102.82316"
       origin="414.60294,99.526501"
       id="path-effect1202"
       is_visible="true"
       copies_to_360="true"
       fuse_paths="false"
       starting_angle="-41.248956"
       rotation_angle="60"
       num_copies="6" />
  </defs>
  <sodipodi:namedview
     pagecolor="#ffffff"
     bordercolor="#666666"
     borderopacity="1"
     objecttolerance="10"
     gridtolerance="10"
     guidetolerance="10"
     inkscape:pageopacity="0"
     inkscape:pageshadow="2"
     inkscape:window-width="1920"
     inkscape:window-height="1043"
     id="namedview1077"
     showgrid="false"
     showguides="true"
     inkscape:pagecheckerboard="true"
     fit-margin-top="0"
     fit-margin-left="0"
     fit-margin-right="0"
     fit-margin-bottom="0"
     inkscape:zoom="1.6459875"
     inkscape:cx="76.686295"
     inkscape:cy="116.13407"
     inkscape:window-x="1920"
     inkscape:window-y="0"
     inkscape:window-maximized="1"
     inkscape:current-layer="svg1075" />
  <path
     inkscape:connector-curvature="0"
     style="opacity:1;fill:#000000;fill-opacity:1;stroke:none;stroke-width:1.88976383;stroke-linecap:round;stroke-linejoin:round;stroke-miterlimit:4;stroke-dasharray:none;stroke-dashoffset:0;stroke-opacity:1"
     d="M 16,0 A 16,16 0 0 0 0,16 16,16 0 0 0 16,32 16,16 0 0 0 32,16 16,16 0 0 0 16,0 Z m 4.8865,3.1615 c 0.260834,-0.001 0.525705,0.0231 0.791501,0.076 2.126363,0.42292 3.507169,2.48963 3.084249,4.616 -0.422919,2.12636 -2.489386,3.50717 -4.61575,3.08425 C 18.020136,10.51483 16.639076,8.44837 17.062001,6.322 17.432055,4.46144 19.060659,3.17156 20.8865,3.1615 Z M 10.669251,3.36475 c 0.941893,-0.0167 1.892674,0.30345 2.65675,0.9735 1.630025,1.42944 1.792691,3.90972 0.36325,5.53975 C 12.259809,11.50803 9.779775,11.67069 8.14975,10.24125 6.519725,8.81181 6.357059,6.33152 7.7865,4.7015 8.545891,3.83555 9.601772,3.38373 10.669251,3.36475 Z m 15.429498,8.5075 c 0.05627,-10e-4 0.112493,-10e-4 0.168501,2.6e-4 1.600237,0.038 3.07978,1.05963 3.62425,2.6635 0.696922,2.05294 -0.402304,4.28232 -2.45525,4.97925 -2.052945,0.69692 -4.282078,-0.40231 -4.978999,-2.45525 -0.696923,-2.05295 0.402304,-4.28233 2.455249,-4.97926 0.392946,-0.13339 0.792352,-0.20082 1.186249,-0.2085 z M 16,12.16 A 0.64,0.64 0 0 1 16.64,12.8 0.64,0.64 0 0 1 16,13.44 0.64,0.64 0 0 1 15.36,12.8 0.64,0.64 0 0 1 16,12.16 Z M 5.750001,12.27625 c 0.05627,-10e-4 0.112491,-10e-4 0.168499,2.6e-4 1.600237,0.038 3.07978,1.05963 3.624249,2.6635 C 10.239672,16.99295 9.140445,19.22233 7.0875,19.91926 5.034555,20.61618 2.8054221,19.51695 2.1085005,17.46401 1.4115776,15.41106 2.5108045,13.18168 4.5637504,12.48476 4.9566963,12.35136 5.356101,12.28393 5.750001,12.27625 Z m 13.006249,1.484 A 0.64,0.64 0 0 1 19.3255,14.08 0.64,0.64 0 0 1 19.09125,14.95425 0.64,0.64 0 0 1 18.217,14.72 a 0.64,0.64 0 0 1 0.23425,-0.87425 0.64,0.64 0 0 1 0.305,-0.0855 z m -5.55775,5.1e-4 a 0.64,0.64 0 0 1 0.35025,0.085 0.64,0.64 0 0 1 0.23425,0.87425 0.64,0.64 0 0 1 -0.87425,0.23425 0.64,0.64 0 0 1 -0.23425,-0.87425 0.64,0.64 0 0 1 0.524,-0.31925 z M 16,14.4 A 1.6,1.6 0 0 1 17.6,16 1.6,1.6 0 0 1 16,17.6 1.6,1.6 0 0 1 14.4,16 1.6,1.6 0 0 1 16,14.4 Z m -2.7865,2.56025 A 0.64,0.64 0 0 1 13.783,17.28 0.64,0.64 0 0 1 13.54875,18.15425 0.64,0.64 0 0 1 12.6745,17.92 a 0.64,0.64 0 0 1 0.23425,-0.87425 0.64,0.64 0 0 1 0.30475,-0.0855 z m 5.5275,5.1e-4 a 0.64,0.64 0 0 1 0.35025,0.085 0.64,0.64 0 0 1 0.23425,0.87425 0.64,0.64 0 0 1 -0.87425,0.23425 0.64,0.64 0 0 1 -0.23425,-0.87425 0.64,0.64 0 0 1 0.524,-0.31925 z M 16,18.56 A 0.64,0.64 0 0 1 16.64,19.2 0.64,0.64 0 0 1 16,19.84 0.64,0.64 0 0 1 15.36,19.2 0.64,0.64 0 0 1 16,18.56 Z m 5.1935,2.22525 c 0.941893,-0.0167 1.892676,0.30345 2.65675,0.9735 1.630025,1.42944 1.792691,3.90972 0.36325,5.53975 -1.429441,1.63002 -3.909474,1.79269 -5.539501,0.36325 -1.630025,-1.42944 -1.792691,-3.90972 -0.36325,-5.53975 0.759391,-0.86595 1.815272,-1.31777 2.882751,-1.33675 z M 11.062001,20.986 c 0.260833,-0.001 0.525703,0.0234 0.791499,0.0763 2.126364,0.42292 3.507424,2.48939 3.084499,4.61575 -0.422919,2.12636 -2.489635,3.50742 -4.616,3.0845 -2.126363,-0.42292 -3.507169,-2.48964 -3.084249,-4.616 0.370055,-1.86057 1.99841,-3.15044 3.824251,-3.1605 z"
     id="path1087" />
</svg>
